<svg width="1280" height="1404" viewBox="0 0 1280 1404" fill="none" xmlns="http://www.w3.org/2000/svg">
<path d="M0 498.841C0 435.74 0 184 0 184C0 184 67.3855 434.079 284.191 411.164C500.997 388.248 489.277 276.991 702.177 534.044C915.076 791.098 1280 791.098 1280 791.098V1403.51C1280 1403.51 1014.04 1428.42 963.906 1123.21C913.774 817.999 595.402 728.661 595.402 728.661C595.402 728.661 0 561.942 0 498.841Z" fill="#F05D55"/>
<path d="M0 332.26C0 269.367 0 36 0 36C0 36 27.2142 315.378 253.773 292.538C480.332 269.698 482.713 108.493 705.19 364.699C927.667 620.906 1280 661.843 1280 661.843V1298C1280 1298 1004.97 1265.83 952.581 961.622C900.194 657.418 593.612 558.675 593.612 558.675C593.612 558.675 0 395.153 0 332.26Z" fill="#F2705A"/>
<path d="M0 286.897C0 225.992 0 0 0 0C0 0 26.6112 270.549 248.15 248.431C469.688 226.312 472.016 70.2017 689.563 318.312C907.11 566.422 1280 566.422 1280 566.422V1157.53C1280 1157.53 1008.23 1181.57 957.006 886.978C905.779 592.387 580.457 506.157 580.457 506.157C580.457 506.157 0 347.803 0 286.897Z" fill="#F3805E"/>
</svg>
