<svg width="79" height="79" viewBox="0 0 79 79" fill="none" xmlns="http://www.w3.org/2000/svg">
<path d="M39.2864 75.8985C59.1213 75.8985 75.2008 59.8191 75.2008 39.9841C75.2008 20.1491 59.1213 4.0697 39.2864 4.0697C19.4514 4.0697 3.37195 20.1491 3.37195 39.9841C3.37195 59.8191 19.4514 75.8985 39.2864 75.8985Z" fill="#0A052C"/>
<path d="M39.1793 0.627686C17.5762 0.627686 0 18.2039 0 39.807C0 61.4102 17.5762 78.9864 39.1793 78.9864C60.7825 78.9864 78.3587 61.4102 78.3587 39.807C78.3587 18.2039 60.7825 0.627686 39.1793 0.627686ZM64.845 19.6933C69.1463 25.1696 71.7455 32.0357 71.8137 39.5077C63.7304 37.6501 56.2924 37.1969 49.3978 38.1076C48.5262 36.0764 47.6131 34.0571 46.6241 32.057C53.4081 29.1581 59.4613 25.1684 64.845 19.6933ZM60.3383 14.9883C55.6119 19.8828 50.2416 23.6043 43.5953 26.3417C40.1648 20.2018 36.1497 14.1576 31.4945 8.10892C33.9637 7.5099 36.5284 7.15758 39.1793 7.15758C47.2512 7.15758 54.6336 10.1174 60.3383 14.9883ZM25.0291 10.4285C29.8231 16.4889 33.9105 22.4658 37.3745 28.5083C29.3259 30.8699 19.5801 32.1835 7.33019 32.708C9.52243 22.8699 16.1649 14.7159 25.0291 10.4285ZM6.55679 39.2744C19.4169 38.7873 30.6834 37.4809 40.5255 34.3516C41.3664 36.0252 42.1685 37.7071 42.9196 39.4019C31.9064 42.4496 22.3933 49.4634 14.0342 60.6069C9.35025 54.9542 6.52989 47.7048 6.52989 39.807C6.52989 39.6273 6.5538 39.4535 6.55679 39.2744ZM18.741 65.2297C26.5036 54.6396 35.1944 48.1222 45.3942 45.4972C48.2939 53.2291 50.3566 61.2843 51.6879 69.9558C47.8325 71.5613 43.6097 72.4565 39.1793 72.4565C31.4452 72.4565 24.341 69.7408 18.741 65.2297ZM57.7483 66.6284C56.4186 58.8786 54.4945 51.5147 51.9028 44.4051C57.8258 43.8382 64.2248 44.3916 71.2104 46.0787C69.5527 54.5603 64.6032 61.8679 57.7483 66.6284Z" fill="white"/>
<path opacity="0.2" d="M39.1793 1.44392C56.5768 1.44392 71.3196 12.6827 76.6302 28.2843C71.7088 12.2704 56.8061 0.627686 39.1793 0.627686C21.5525 0.627686 6.65005 12.2704 1.72852 28.2839C7.03903 12.6827 21.7817 1.44392 39.1793 1.44392Z" fill="white"/>
<path opacity="0.1" d="M39.1794 78.1702C23.6869 78.1702 10.3256 69.3593 3.83521 56.4125C3.03714 54.8206 2.34296 53.1661 1.76147 51.4578C2.28653 53.1663 2.92482 54.8236 3.66762 56.4212C9.88709 69.7976 23.4332 78.9864 39.1794 78.9864C54.4458 78.9864 67.6544 70.3151 74.1155 57.5893C75.1145 55.6217 75.9522 53.5572 76.6113 51.4128C76.1914 52.6464 75.7126 53.8523 75.1783 55.027C68.9556 68.7085 55.2014 78.1702 39.1794 78.1702Z" fill="#010101"/>
<path d="M39.1793 0.627686C17.5762 0.627686 0 18.2039 0 39.807C0 61.4102 17.5762 78.9864 39.1793 78.9864C60.7825 78.9864 78.3587 61.4102 78.3587 39.807C78.3587 18.2039 60.7825 0.627686 39.1793 0.627686Z" fill="url(#paint0_linear)"/>
<defs>
<linearGradient id="paint0_linear" x1="3.6728" y1="23.2501" x2="74.6859" y2="56.364" gradientUnits="userSpaceOnUse">
<stop stop-color="white" stop-opacity="0.2"/>
<stop offset="1" stop-color="white" stop-opacity="0"/>
</linearGradient>
</defs>
</svg>
