<svg width="1920" height="563" viewBox="0 0 1920 563" fill="none" xmlns="http://www.w3.org/2000/svg">
<path d="M1494.74 160.156C1816.74 141.705 1920 31 1920 31V563H1221.66C1221.66 563 1172.74 178.607 1494.74 160.156Z" fill="#F3805E"/>
<path d="M1307 251.357C1698 444.357 1920 177 1920 177V563H891C891 563 916 58.3569 1307 251.357Z" fill="#F05D55"/>
<path d="M0 0C0 0 257.683 232.852 565.326 136.104C872.968 39.3554 832.212 563 832.212 563H0V0Z" fill="#F05D55"/>
<path d="M0 6C0 6 293.5 505 682 255.5C1070.5 6 1111 563 1111 563H0V6Z" fill="#F3805E"/>
</svg>
