<svg width="82" height="82" viewBox="0 0 82 82" fill="none" xmlns="http://www.w3.org/2000/svg">
<path fill-rule="evenodd" clip-rule="evenodd" d="M82 10.25C82 4.5928 77.4072 0 71.75 0H10.25C4.5928 0 0 4.5928 0 10.25V71.75C0 77.4072 4.5928 82 10.25 82H71.75C77.4072 82 82 77.4072 82 71.75V10.25Z" fill="white"/>
<path d="M23.5047 28.6079H9.76965V69.9221H23.5047V28.6079Z" fill="#0A052C"/>
<path d="M16.7383 8.68848C12.0391 8.68848 8.96875 11.7779 8.96875 15.8271C8.96875 19.7913 11.9457 22.9659 16.5565 22.9659H16.6452C21.4344 22.9659 24.4153 19.7913 24.4153 15.8271C24.3265 11.7779 21.4347 8.68848 16.7383 8.68848Z" fill="#0A052C"/>
<path d="M57.2181 27.637C49.9326 27.637 46.6692 31.6436 44.8418 34.4579V28.6085H31.1104C31.2924 32.4838 31.1104 69.9225 31.1104 69.9225H44.8417V46.8498C44.8417 45.6148 44.9304 44.3802 45.2944 43.4976C46.2855 41.0311 48.5464 38.4763 52.3402 38.4763C57.307 38.4763 59.2967 42.2663 59.2967 47.8178V69.9225H73.0287V46.2306C73.0287 33.5403 66.2533 27.637 57.2181 27.637Z" fill="#0A052C"/>
</svg>
