<svg width="124" height="185" viewBox="0 0 124 185" fill="none" xmlns="http://www.w3.org/2000/svg">
<rect width="124" height="185" rx="20" fill="#0F083B"/>
<path d="M18 139.833C18 133.53 20.504 127.485 24.9611 123.028C29.4182 118.571 35.4633 116.067 41.7667 116.067H65.5333V139.833C65.5333 146.137 63.0293 152.182 58.5722 156.639C54.1151 161.096 48.07 163.6 41.7667 163.6C35.4633 163.6 29.4182 161.096 24.9611 156.639C20.504 152.182 18 146.137 18 139.833ZM41.7667 116.067H65.5333V68.5333H41.7667C35.4633 68.5333 29.4182 71.0373 24.9611 75.4944C20.504 79.9515 18 85.9967 18 92.3C18 98.6033 20.504 104.648 24.9611 109.106C29.4182 113.563 35.4633 116.067 41.7667 116.067ZM41.7667 68.5333H65.5333V21H41.7667C35.4633 21 29.4182 23.504 24.9611 27.9611C20.504 32.4182 18 38.4634 18 44.7667C18 51.07 20.504 57.1151 24.9611 61.5722C29.4182 66.0293 35.4633 68.5333 41.7667 68.5333ZM65.5333 68.5333H89.3C95.6033 68.5333 101.648 66.0293 106.106 61.5722C110.563 57.1151 113.067 51.07 113.067 44.7667C113.067 38.4634 110.563 32.4182 106.106 27.9611C101.648 23.504 95.6033 21 89.3 21H65.5333V68.5333ZM89.3 68.5333C84.5994 68.5333 80.0043 69.9272 76.0959 72.5387C72.1875 75.1502 69.1413 78.8621 67.3424 83.2049C65.5436 87.5477 65.0729 92.3264 65.99 96.9366C66.907 101.547 69.1706 105.782 72.4944 109.106C75.8182 112.429 80.0531 114.693 84.6633 115.61C89.2736 116.527 94.0523 116.056 98.3951 114.258C102.738 112.459 106.45 109.412 109.061 105.504C111.673 101.596 113.067 97.0006 113.067 92.3C113.067 85.9967 110.563 79.9515 106.106 75.4944C101.648 71.0373 95.6033 68.5333 89.3 68.5333Z" fill="white"/>
</svg>
