<svg width="124" height="125" viewBox="0 0 124 125" fill="none" xmlns="http://www.w3.org/2000/svg">
<rect width="124" height="125" rx="20" fill="#0F083B"/>
<path d="M97.4879 71.9535C105.152 70.2234 110.875 63.3738 110.875 55.1875C110.875 45.6953 103.18 38 93.6871 38C89.5343 38 85.7254 39.473 82.7543 41.925" stroke="white" stroke-width="5" stroke-miterlimit="10" stroke-linecap="round" stroke-linejoin="round"/>
<path d="M42.1301 41.9332C39.1578 39.4762 35.3449 38 31.1875 38C21.6949 38 14 45.6953 14 55.1875C14 63.3785 19.7301 70.2312 27.4004 71.9562" stroke="white" stroke-width="5" stroke-miterlimit="10" stroke-linecap="round" stroke-linejoin="round"/>
<path fill-rule="evenodd" clip-rule="evenodd" d="M62.4375 88C99.1289 88 96.7824 76.807 96.7824 63C96.7824 49.193 81.4058 38 62.4375 38C43.4691 38 28.0926 49.193 28.0926 63C28.0926 76.807 25.7457 88 62.4375 88Z" stroke="white" stroke-width="5" stroke-miterlimit="10" stroke-linecap="round" stroke-linejoin="round"/>
<path d="M75.4445 70.4387C77.1629 72.5723 79.7969 73.9375 82.75 73.9375C87.9277 73.9375 92.125 69.7402 92.125 64.5625C92.125 59.3848 87.9277 55.1875 82.75 55.1875C79.7816 55.1875 77.1355 56.5668 75.418 58.7199" stroke="white" stroke-width="3" stroke-miterlimit="10" stroke-linecap="round" stroke-linejoin="round"/>
<path d="M49.5781 58.8746C47.8652 56.6332 45.1641 55.1875 42.125 55.1875C36.9473 55.1875 32.75 59.3848 32.75 64.5625C32.75 69.7402 36.9473 73.9375 42.125 73.9375C44.9309 73.9375 47.4488 72.7047 49.1668 70.7516" stroke="white" stroke-width="3" stroke-miterlimit="10" stroke-linecap="round" stroke-linejoin="round"/>
<path d="M40.5625 64.5625C42.2884 64.5625 43.6875 63.1634 43.6875 61.4375C43.6875 59.7116 42.2884 58.3125 40.5625 58.3125C38.8366 58.3125 37.4375 59.7116 37.4375 61.4375C37.4375 63.1634 38.8366 64.5625 40.5625 64.5625Z" fill="white"/>
<path d="M82.75 64.5625C84.4759 64.5625 85.875 63.1634 85.875 61.4375C85.875 59.7116 84.4759 58.3125 82.75 58.3125C81.0241 58.3125 79.625 59.7116 79.625 61.4375C79.625 63.1634 81.0241 64.5625 82.75 64.5625Z" fill="white"/>
<path fill-rule="evenodd" clip-rule="evenodd" d="M62.4375 84.875C74.2035 84.875 74.9375 77.7301 74.9375 64.7855C74.9375 51.841 69.341 38 62.4375 38C55.534 38 49.9375 51.8414 49.9375 64.7855C49.9375 77.7297 50.6715 84.875 62.4375 84.875Z" stroke="white" stroke-width="3" stroke-miterlimit="10" stroke-linecap="round" stroke-linejoin="round"/>
<path d="M57.75 78.625C59.4759 78.625 60.875 77.2259 60.875 75.5C60.875 73.7741 59.4759 72.375 57.75 72.375C56.0241 72.375 54.625 73.7741 54.625 75.5C54.625 77.2259 56.0241 78.625 57.75 78.625Z" stroke="white" stroke-width="3" stroke-miterlimit="10" stroke-linecap="round" stroke-linejoin="round"/>
<path d="M67.125 78.625C68.8509 78.625 70.25 77.2259 70.25 75.5C70.25 73.7741 68.8509 72.375 67.125 72.375C65.3991 72.375 64 73.7741 64 75.5C64 77.2259 65.3991 78.625 67.125 78.625Z" stroke="white" stroke-width="3" stroke-miterlimit="10" stroke-linecap="round" stroke-linejoin="round"/>
</svg>
