<svg width="124" height="125" viewBox="0 0 124 125" fill="none" xmlns="http://www.w3.org/2000/svg">
<rect width="124" height="125" rx="20" fill="#0F083B"/>
<path d="M62 100C82.4345 100 99 83.4346 99 63C99 42.5655 82.4345 26 62 26C41.5655 26 25 42.5655 25 63C25 83.4346 41.5655 100 62 100Z" fill="white"/>
<path d="M63.2967 50.4529C56.292 50.4532 49.5744 51.8446 44.6216 54.3213C39.6688 56.798 36.8864 60.157 36.8866 63.6593C36.8864 67.1617 39.6688 70.5208 44.6216 72.9975C49.5744 75.4742 56.292 76.8656 63.2967 76.8659C66.7653 76.866 70.2 76.5244 73.4046 75.8607C76.6092 75.197 79.521 74.2244 81.9737 72.998C84.4264 71.7717 86.372 70.3158 87.6993 68.7135C89.0267 67.1112 89.7098 65.3936 89.7098 63.6593C89.7098 61.925 89.0267 60.2077 87.6993 58.6053C86.372 57.003 84.4264 55.5471 81.9737 54.3208C79.521 53.0944 76.6092 52.1218 73.4046 51.4581C70.2 50.7944 66.7653 50.4528 63.2967 50.4529ZM63.2967 52.6269C69.6101 52.6266 75.6653 53.7887 80.1301 55.8577C84.595 57.9267 87.104 60.733 87.1052 63.6593C87.1055 65.1086 86.4898 66.5437 85.2934 67.8827C84.0971 69.2216 82.3433 70.4383 80.1325 71.4631C77.9216 72.4879 75.2968 73.3006 72.4081 73.8551C69.5194 74.4096 66.4233 74.6951 63.2967 74.6949C60.1703 74.6949 57.0745 74.4094 54.1861 73.8547C51.2978 73.3001 48.6734 72.4873 46.4628 71.4625C44.2523 70.4378 42.4988 69.2212 41.3026 67.8823C40.1064 66.5435 39.4909 65.1084 39.4912 63.6593C39.4923 60.7332 42.0009 57.9272 46.4651 55.8582C50.9294 53.7893 56.9837 52.627 63.2967 52.6269Z" fill="white"/>
<path d="M51.8602 57.0574C48.3582 63.1238 46.2045 69.6373 45.8729 75.1649C45.5414 80.6925 47.0592 84.7815 50.0924 86.5325C53.1255 88.2838 57.4256 87.5538 62.0468 84.5029C66.6681 81.452 71.232 76.3301 74.7346 70.264C76.469 67.2601 77.8905 64.1148 78.9181 61.0076C79.9456 57.9005 80.5591 54.8924 80.7234 52.1551C80.8877 49.4178 80.5996 47.0049 79.8757 45.0543C79.1517 43.1036 78.006 41.6533 76.504 40.7862C75.0021 39.919 73.1732 39.6519 71.1219 40.0003C69.0706 40.3487 66.837 41.3057 64.5486 42.8166C62.2602 44.3275 59.9618 46.3628 57.7847 48.8062C55.6077 51.2497 53.5945 54.0534 51.8602 57.0574ZM53.7429 58.1446C56.8994 52.6768 60.9335 48.014 64.9577 45.1818C68.9819 42.3495 72.6668 41.5799 75.2016 43.0421C76.4569 43.7664 77.3919 45.0172 77.9532 46.7227C78.5146 48.4283 78.6914 50.5554 78.4734 52.9825C78.2554 55.4096 77.647 58.0891 76.6829 60.8681C75.7188 63.647 74.4179 66.4709 72.8544 69.1786C71.2912 71.8861 69.4961 74.4245 67.5716 76.6486C65.6471 78.8727 63.6309 80.739 61.6381 82.1411C59.6454 83.5431 57.7151 84.4532 55.9575 84.8197C54.1999 85.1863 52.6495 85.0018 51.3946 84.277C48.8611 82.813 47.6852 79.2376 48.1255 74.337C48.5659 69.4363 50.5865 63.6118 53.7429 58.1446Z" fill="white"/>
<path d="M51.8617 70.264C55.3643 76.3301 59.9283 81.452 64.5495 84.5029C69.1708 87.5538 73.4709 88.2838 76.504 86.5325C79.5372 84.7815 81.0549 80.6925 80.7234 75.1649C80.3919 69.6373 78.2382 63.1238 74.7361 57.0574C73.0018 54.0534 70.9887 51.2497 68.8116 48.8062C66.6345 46.3628 64.3362 44.3275 62.0478 42.8166C59.7594 41.3057 57.5258 40.3487 55.4745 40.0003C53.4231 39.6519 51.5943 39.919 50.0924 40.7862C48.5904 41.6533 47.4447 43.1036 46.7207 45.0543C45.9967 47.0049 45.7087 49.4178 45.873 52.1551C46.0373 54.8924 46.6507 57.9005 47.6783 61.0076C48.7058 64.1148 50.1274 67.2601 51.8617 70.264ZM53.7444 69.177C50.5875 63.7095 48.5664 57.8844 48.1257 52.9832C47.6851 48.082 48.8609 44.5061 51.3947 43.0419C52.6496 42.317 54.2002 42.1327 55.958 42.4994C57.7157 42.866 59.6462 43.7763 61.6391 45.1786C63.632 46.5808 65.6484 48.4475 67.573 50.6719C69.4976 52.8963 71.2928 55.435 72.856 58.1428C74.4191 60.8504 75.7198 63.6743 76.6836 66.453C77.6475 69.2317 78.2557 71.9109 78.4735 74.3377C78.6913 76.7644 78.5145 78.8912 77.9531 80.5965C77.3917 82.3019 76.4568 83.5525 75.2017 84.2769C72.667 85.7389 68.9826 84.9695 64.9587 82.1379C60.9348 79.3062 56.901 74.6441 53.7444 69.177Z" fill="white"/>
<path d="M63.2981 66.8884C65.0814 66.8884 66.527 65.4427 66.527 63.6594C66.527 61.8761 65.0814 60.4304 63.2981 60.4304C61.5148 60.4304 60.0691 61.8761 60.0691 63.6594C60.0691 65.4427 61.5148 66.8884 63.2981 66.8884Z" fill="white"/>
<path d="M61.9984 49.7937C54.9937 49.794 48.2761 51.1855 43.3233 53.6622C38.3705 56.1388 35.5882 59.4978 35.5884 63.0001C35.5882 66.5025 38.3705 69.8616 43.3233 72.3383C48.2761 74.815 54.9937 76.2064 61.9984 76.2068C65.4671 76.2068 68.9018 75.8652 72.1064 75.2015C75.311 74.5379 78.2228 73.5652 80.6755 72.3388C83.1282 71.1125 85.0738 69.6566 86.4011 68.0543C87.7285 66.452 88.4116 64.7345 88.4115 63.0001C88.4116 61.2658 87.7285 59.5485 86.4011 57.9462C85.0738 56.3439 83.1282 54.888 80.6755 53.6616C78.2228 52.4353 75.311 51.4626 72.1064 50.7989C68.9018 50.1352 65.4671 49.7937 61.9984 49.7937ZM61.9984 51.9677C68.3119 51.9675 74.367 53.1295 78.8319 55.1985C83.2968 57.2675 85.8058 60.0738 85.807 63.0001C85.8072 64.4494 85.1916 65.8846 83.9952 67.2235C82.7988 68.5625 81.0451 69.7791 78.8342 70.8039C76.6234 71.8287 73.9986 72.6414 71.1099 73.1959C68.2212 73.7505 65.1251 74.0359 61.9984 74.0358C58.872 74.0357 55.7763 73.7502 52.8879 73.1956C49.9995 72.6409 47.3752 71.8281 45.1646 70.8034C42.954 69.7786 41.2006 68.562 40.0044 67.2232C38.8082 65.8843 38.1927 64.4493 38.193 63.0001C38.1941 60.074 40.7027 57.268 45.1669 55.199C49.6312 53.1301 55.6855 51.9678 61.9984 51.9677Z" fill="#0F083B"/>
<path d="M50.5621 56.3982C47.0601 62.4646 44.9064 68.9781 44.5748 74.5057C44.2433 80.0333 45.7611 84.1223 48.7943 85.8733C51.8274 87.6246 56.1275 86.8946 60.7487 83.8437C65.37 80.7928 69.9339 75.6709 73.4366 69.6048C75.1709 66.6009 76.5925 63.4556 77.62 60.3485C78.6476 57.2413 79.261 54.2332 79.4253 51.4959C79.5896 48.7586 79.3015 46.3458 78.5776 44.3951C77.8536 42.4444 76.7079 40.9942 75.2059 40.1271C73.704 39.2598 71.8751 38.9927 69.8238 39.3411C67.7725 39.6895 65.5389 40.6465 63.2505 42.1574C60.9621 43.6683 58.6637 45.7036 56.4866 48.1471C54.3096 50.5905 52.2964 53.3943 50.5621 56.3982ZM52.4448 57.4854C55.6013 52.0176 59.6354 47.3548 63.6596 44.5226C67.6839 41.6904 71.3687 40.9207 73.9035 42.3829C75.1588 43.1073 76.0938 44.358 76.6551 46.0636C77.2165 47.7691 77.3933 49.8962 77.1753 52.3233C76.9573 54.7504 76.3489 57.4299 75.3848 60.2089C74.4207 62.9878 73.1198 65.8117 71.5564 68.5194C69.9931 71.2269 68.198 73.7653 66.2735 75.9894C64.349 78.2135 62.3328 80.0799 60.34 81.4819C58.3473 82.8839 56.417 83.794 54.6594 84.1606C52.9018 84.5271 51.3514 84.3427 50.0965 83.6179C47.563 82.1538 46.3871 78.5784 46.8274 73.6778C47.2678 68.7771 49.2884 62.9527 52.4448 57.4854Z" fill="#0F083B"/>
<path d="M50.5636 69.6048C54.0662 75.6709 58.6302 80.7928 63.2514 83.8437C67.8727 86.8946 72.1728 87.6246 75.2059 85.8733C78.2391 84.1223 79.7568 80.0333 79.4253 74.5057C79.0938 68.9781 76.9401 62.4646 73.438 56.3982C71.7037 53.3943 69.6906 50.5905 67.5135 48.1471C65.3365 45.7036 63.0381 43.6683 60.7497 42.1574C58.4613 40.6465 56.2277 39.6895 54.1764 39.3411C52.125 38.9927 50.2962 39.2598 48.7943 40.1271C47.2923 40.9942 46.1466 42.4444 45.4226 44.3951C44.6986 46.3458 44.4106 48.7586 44.5749 51.4959C44.7392 54.2332 45.3526 57.2413 46.3802 60.3485C47.4077 63.4556 48.8293 66.6009 50.5636 69.6048ZM52.4463 68.5178C49.2894 63.0503 47.2683 57.2252 46.8276 52.324C46.387 47.4228 47.5628 43.8469 50.0966 42.3827C51.3515 41.6578 52.9021 41.4736 54.6599 41.8402C56.4176 42.2068 58.3481 43.1171 60.341 44.5194C62.3339 45.9217 64.3503 47.7883 66.2749 50.0127C68.1995 52.2372 69.9947 54.7758 71.5579 57.4836C73.1211 60.1912 74.4217 63.0151 75.3856 65.7938C76.3494 68.5725 76.9576 71.2517 77.1754 73.6785C77.3932 76.1053 77.2164 78.232 76.655 79.9374C76.0936 81.6427 75.1587 82.8934 73.9036 83.6177C71.3689 85.0798 67.6845 84.3104 63.6606 81.4787C59.6367 78.647 55.6029 73.9849 52.4463 68.5178Z" fill="#0F083B"/>
<path d="M62 66.2293C63.7833 66.2293 65.2289 64.7836 65.2289 63.0003C65.2289 61.2169 63.7833 59.7712 62 59.7712C60.2167 59.7712 58.771 61.2169 58.771 63.0003C58.771 64.7836 60.2167 66.2293 62 66.2293Z" fill="#0F083B"/>
</svg>
