<svg width="124" height="125" viewBox="0 0 124 125" fill="none" xmlns="http://www.w3.org/2000/svg">
<rect width="124" height="125" rx="20" fill="#0F083B"/>
<path fill-rule="evenodd" clip-rule="evenodd" d="M91.2587 105.516L97.913 30.9777L98 30H97.0197H23.9804H23L23.0871 30.9777L29.7341 105.528L29.7895 106.15L30.3883 106.316L60.2164 114.596H60.695L90.6044 106.304L91.2031 106.138L91.2587 105.516Z" fill="white"/>
<path fill-rule="evenodd" clip-rule="evenodd" d="M92.2198 35.2871H60.5V109.164L86.2622 102.021L92.2198 35.2871Z" fill="white"/>
<path fill-rule="evenodd" clip-rule="evenodd" d="M60.4648 55.1343L38.0923 64.4519L38.8344 73.6767L60.4648 64.4283L83.4737 54.591L84.4276 45.1543L60.4648 55.1343Z" fill="#0F083B"/>
<path fill-rule="evenodd" clip-rule="evenodd" d="M60.4648 45.156H60.6306H60.8195H61.0079H61.1968H61.3857H61.5746H61.7635H61.9524H62.1413H62.3303H62.5192H62.7081H62.897H63.0859H63.2748H63.4637H63.6521H63.841H64.0299H64.2188H64.4077H64.5966H64.7855H64.9744H65.1633H65.3523H65.5412H65.7295H65.9184H66.1073H66.2963H66.4852H66.6741H66.863H67.0519H67.2408H67.4297H67.6186H67.8075H67.9964H68.1854H68.3743H68.5626H68.7515H68.9404H69.1294H69.3183H69.5072H69.6961H69.885H70.0739H70.2628H70.4517H70.6406H70.8295H71.0179H71.2068H71.3957H71.5846H71.7735H71.9624H72.1514H72.3403H72.5292H72.7181H72.907H73.0959H73.2843H73.4732H73.6621H73.851H74.0399H74.2288H74.4177H74.6066H74.7955H74.9844H75.1734H75.3623H75.5512H75.7401H75.9284H76.1174H76.3063H76.4952H76.6841H76.873H77.0619H77.2508H77.4397H77.6286H77.8175H78.0065H78.1948H78.3837H78.5726H78.7615H78.9504H79.1394H79.3283H79.5172H79.7061H79.895H80.0839H80.2728H80.4617H80.6506H80.839H81.0279H81.2168H81.4057H81.5946H81.7835H81.9725H82.1614H82.3503H82.5392H82.7281H82.917H83.1059H83.2948H83.4832H83.6721H83.861H84.0499H84.2388H84.4277L84.2388 47.0238L84.0499 48.8915L83.861 50.7592L83.6721 52.6275L83.4832 54.4952L83.4738 54.5923H83.2948H83.1059H82.917H82.7281H82.5392H82.3503H82.1614H81.9725H81.7835H81.5946H81.4057H81.2168H81.0279H80.839H80.6506H80.4617H80.2728H80.0839H79.895H79.7061H79.5172H79.3283H79.1394H78.9504H78.7615H78.5726H78.3837H78.1948H78.0065H77.8175H77.6286H77.4397H77.2508H77.0619H76.873H76.6841H76.4952H76.3063H76.1174H75.9284H75.7401H75.5512H75.3623H75.1734H74.9844H74.7955H74.6066H74.4177H74.2288H74.0399H73.851H73.6621H73.4732H73.2843H73.0959H72.907H72.7181H72.5292H72.3403H72.1514H71.9624H71.7735H71.5846H71.3957H71.2068H71.0179H70.8295H70.6406H70.4517H70.2628H70.0739H69.885H69.6961H69.5072H69.3183H69.1294H68.9404H68.7515H68.5626H68.3743H68.1854H67.9964H67.8075H67.6186H67.4297H67.2408H67.0519H66.863H66.6741H66.4852H66.2963H66.1073H65.9184H65.7295H65.5412H65.3523H65.1633H64.9744H64.7855H64.5966H64.4077H64.2188H64.0299H63.841H63.6521H63.4637H63.2748H63.0859H62.897H62.7081H62.5192H62.3303H62.1413H61.9524H61.769H61.7635H61.5746H61.3857H61.1968H61.0079H60.8195H60.6306H60.4924H60.4648H60.4417H60.2528H60.0639H59.875H59.6861H59.4972H59.3082H59.1195H58.9307H58.7418H58.5529H58.364H58.1752H57.9864H57.7975H57.6086H57.4197H57.2308H57.0419H56.8531H56.6643H56.4754H56.2865H56.0976H55.9088H55.7199H55.531H55.3422H55.1533H54.9644H54.7756H54.5867H54.3978H54.209H54.0201H53.8312H53.6424H53.4535H53.2646H53.0758H52.8869H52.6981H52.5092H52.3203H52.1314H51.9425H51.7537H51.5648H51.376H51.1871H50.9982H50.8094H50.6205H50.4316H50.2427H50.0539H49.865H49.6762H49.4873H49.2984H49.1096H48.9206H48.7318H48.543H48.3541H48.1652H47.9763H47.7875H47.5986H47.4097H47.2209H47.032H46.8431H46.6542H46.4654H46.2766H46.0877H45.8988H45.7099H45.5211H45.3322H45.1433H44.9545H44.7656H44.5767H44.3879H44.199H44.0101H43.8212H43.6324H43.4435H43.2547H43.0658H42.8769H42.6881H42.4991H42.3103H42.1214H41.9326H41.7437H41.5548H41.366H41.1771H40.9883H40.7994H40.6105H40.4216H40.2328H40.0439H39.855H39.6662H39.4773H39.2884H39.0996H38.9107H38.7218H38.5329H38.3441H38.1553H37.9664H37.7775H37.5886H37.3997H37.2439L37.2109 54.3254L37.022 52.7969L36.8332 51.2689L36.6443 49.7402L36.4554 48.2122L36.2666 46.6841L36.0778 45.156H36.2666H36.4554H36.6443H36.8332H37.022H37.2109H37.3997H37.5886H37.7775H37.9664H38.1553H38.3441H38.5329H38.7218H38.9107H39.0996H39.2884H39.4773H39.6662H39.855H40.0439H40.2328H40.4216H40.6105H40.7994H40.9883H41.1771H41.366H41.5548H41.7437H41.9326H42.1214H42.3103H42.4991H42.6881H42.8769H43.0658H43.2547H43.4435H43.6324H43.8212H44.0101H44.199H44.3879H44.5767H44.7656H44.9545H45.1433H45.3322H45.5211H45.7099H45.8988H46.0877H46.2766H46.4654H46.6542H46.8431H47.032H47.2209H47.4097H47.5986H47.7875H47.9763H48.1652H48.3541H48.543H48.7318H48.9206H49.1096H49.2984H49.4873H49.6762H49.865H50.0539H50.2427H50.4316H50.6205H50.8094H50.9982H51.1871H51.376H51.5648H51.7537H51.9425H52.1314H52.3203H52.5092H52.6981H52.8869H53.0758H53.2646H53.4535H53.6424H53.8312H54.0201H54.209H54.3978H54.5867H54.7756H54.9644H55.1533H55.3422H55.531H55.7199H55.9088H56.0976H56.2865H56.4754H56.6643H56.8531H57.0419H57.2308H57.4197H57.6086H57.7975H57.9864H58.1752H58.364H58.5529H58.7418H58.9307H59.1195H59.3082H59.4972H59.6861H59.875H60.0639H60.2528H60.4417H60.4648Z" fill="#0F083B"/>
<path fill-rule="evenodd" clip-rule="evenodd" d="M38.1268 64.4534H82.6608L81.8496 73.7831L38.8689 73.6768L38.1268 64.4534Z" fill="#0F083B"/>
<path fill-rule="evenodd" clip-rule="evenodd" d="M39.5184 78.8737L49.2603 78.8776L49.8959 86.5061L60.4648 89.1272L71.3153 86.082L72.0494 73.6069L81.8783 73.4526L80.1158 93.7161L60.5001 99.4423L40.743 93.6103L39.5184 78.8737Z" fill="#0F083B"/>
<path fill-rule="evenodd" clip-rule="evenodd" d="M60.5 64.4131L83.4737 54.591L84.4276 45.1543L60.5 55.1195V64.4131Z" fill="#0F083B"/>
<path fill-rule="evenodd" clip-rule="evenodd" d="M60.5 45.1555H60.6305H60.8194H61.0078H61.1967H61.3856H61.5745H61.7634H61.9523H62.1413H62.3302H62.5191H62.708H62.8969H63.0858H63.2747H63.4636H63.652H63.8409H64.0298H64.2187H64.4076H64.5965H64.7854H64.9743H65.1633H65.3522H65.5411H65.7294H65.9183H66.1073H66.2962H66.4851H66.674H66.8629H67.0518H67.2407H67.4296H67.6185H67.8074H67.9964H68.1853H68.3742H68.5625H68.7514H68.9404H69.1293H69.3182H69.5071H69.696H69.8849H70.0738H70.2627H70.4516H70.6405H70.8295H71.0178H71.2067H71.3956H71.5845H71.7734H71.9624H72.1513H72.3402H72.5291H72.718H72.9069H73.0958H73.2842H73.4731H73.662H73.8509H74.0398H74.2287H74.4176H74.6065H74.7955H74.9844H75.1733H75.3622H75.5511H75.74H75.9284H76.1173H76.3062H76.4951H76.684H76.8729H77.0618H77.2507H77.4396H77.6285H77.8175H78.0064H78.1947H78.3836H78.5725H78.7614H78.9504H79.1393H79.3282H79.5171H79.706H79.8949H80.0838H80.2727H80.4616H80.6505H80.8389H81.0278H81.2167H81.4056H81.5945H81.7835H81.9724H82.1613H82.3502H82.5391H82.728H82.9169H83.1058H83.2947H83.4831H83.672H83.8609H84.0498H84.2387H84.4276L84.2387 47.0234L84.0498 48.891L83.8609 50.7587L83.672 52.627L83.4831 54.4947L83.4737 54.5918H83.2947H83.1058H82.9169H82.728H82.5391H82.3502H82.1613H81.9724H81.7835H81.5945H81.4056H81.2167H81.0278H80.8389H80.6505H80.4616H80.2727H80.0838H79.8949H79.706H79.5171H79.3282H79.1393H78.9504H78.7614H78.5725H78.3836H78.1947H78.0064H77.8175H77.6285H77.4396H77.2507H77.0618H76.8729H76.684H76.4951H76.3062H76.1173H75.9284H75.74H75.5511H75.3622H75.1733H74.9844H74.7955H74.6065H74.4176H74.2287H74.0398H73.8509H73.662H73.4731H73.2842H73.0958H72.9069H72.718H72.5291H72.3402H72.1513H71.9624H71.7734H71.5845H71.3956H71.2067H71.0178H70.8295H70.6405H70.4516H70.2627H70.0738H69.8849H69.696H69.5071H69.3182H69.1293H68.9404H68.7514H68.5625H68.3742H68.1853H67.9964H67.8074H67.6185H67.4296H67.2407H67.0518H66.8629H66.674H66.4851H66.2962H66.1073H65.9183H65.7294H65.5411H65.3522H65.1633H64.9743H64.7854H64.5965H64.4076H64.2187H64.0298H63.8409H63.652H63.4636H63.2747H63.0858H62.8969H62.708H62.5191H62.3302H62.1413H61.9523H61.7689H61.7634H61.5745H61.3856H61.1967H61.0078H60.8194H60.6305H60.5V45.1555Z" fill="#0F083B"/>
<path fill-rule="evenodd" clip-rule="evenodd" d="M60.5 64.4534H82.6608L81.8495 73.7831L60.5 73.7303V64.4534Z" fill="#0F083B"/>
<path fill-rule="evenodd" clip-rule="evenodd" d="M60.5 89.1173L71.3152 86.082L72.0494 73.6069L81.8782 73.4526L80.1158 93.7161L60.5 99.4423V99.4418V89.1173Z" fill="#0F083B"/>
</svg>
