<svg width="124" height="125" viewBox="0 0 124 125" fill="none" xmlns="http://www.w3.org/2000/svg">
<rect width="124" height="125" rx="20" fill="#0F083B"/>
<path d="M102.063 24.8748H24.0934V100.813H102.063V24.8748Z" fill="white"/>
<path d="M95.968 30.9712H30.0325V94.7164H95.968V30.9712Z" fill="#0F083C"/>
<g opacity="0.302">
<g opacity="0.302">
<path opacity="0.302" d="M79.9633 46.0006C80.1182 46.1046 75.6123 50.8568 75.6123 50.8568L81.422 55.471L76.0785 59.4725L62.7147 46.4706L56.3437 48.0371L52.3034 61.039L45 78.7405L67.3765 94.7188H95.9688V59.0026C95.9688 59.0026 79.8084 45.8966 79.9633 46.0006Z" fill="white"/>
</g>
</g>
<g opacity="0.302">
<g opacity="0.302">
<path opacity="0.302" d="M95.968 30.969H30.0325V33.1562H95.968V30.969Z" fill="white"/>
</g>
</g>
<path d="M63.1926 47H57.2558L50.883 60.3288L44.4246 47H38.3089L46.964 64.307L38 82.0285H44.0434L50.5303 68.4473L57.0926 82.0285H63.6339L54.3947 64.0987L63.1926 47ZM79.6045 47V55.9068C79.6045 55.9068 78.5776 55.9068 77.8938 55.9068C72.0558 55.9068 64.9981 59.6716 64.9981 69.2877C64.9981 76.7215 68.7647 82.3091 76.7874 82.3091C82.6945 82.3091 85.4775 80.2657 85.4775 80.2657V47H79.6045ZM79.5987 77.1923C79.5987 77.1923 78.9225 77.4898 77.3271 77.4898C75.7317 77.4898 70.837 76.7869 70.837 69.0256C70.837 61.2651 76.4618 60.6427 77.8135 60.6427C79.166 60.6427 79.5986 61.0215 79.5986 61.0215V77.1923H79.5987Z" fill="white"/>
</svg>
