<svg width="124" height="125" viewBox="0 0 124 125" fill="none" xmlns="http://www.w3.org/2000/svg">
<rect width="124" height="125" rx="20" fill="#0F083B"/>
<path d="M102.039 23.9216H22.1208V101.758H102.039V23.9216Z" fill="white"/>
<path d="M95.7922 30.1704H28.2083V95.5092H95.7922V30.1704Z" fill="#0F083B"/>
<g opacity="0.302">
<g opacity="0.302">
<path opacity="0.302" d="M81.2188 56.2734L71.6094 58.9961L59.2773 47.4648L45.5039 48.9062L45.0234 61.3984L41.8203 79.1758L67.7656 95.5117H95.793V67.0039L81.2188 56.2734Z" fill="#A4A4A4"/>
</g>
</g>
<g opacity="0.302">
<g opacity="0.302">
<path opacity="0.302" d="M95.7922 30.1682H28.2083V32.4101H95.7922V30.1682Z" fill="#A4A4A4"/>
</g>
</g>
<path d="M41.8099 46.6237C43.9626 46.2323 46.9472 45.9387 51.0082 45.9387C55.4117 45.9387 58.6407 46.8684 60.7447 48.6297C62.7017 50.2444 63.9739 52.8375 63.9739 55.9198C63.9739 59.0512 62.9954 61.6443 61.1361 63.4057C58.7388 65.8032 54.9712 66.9285 50.7146 66.9285C49.5893 66.9285 48.5618 66.8795 47.7789 66.7328V79.1603H41.8098V46.6237H41.8099ZM47.7789 61.9867C48.5128 62.1824 49.4913 62.2313 50.7146 62.2313C55.2158 62.2313 57.9557 60.0294 57.9557 56.1644C57.9557 52.4947 55.4115 50.5378 51.2527 50.5378C49.5892 50.5378 48.4149 50.6846 47.7789 50.8313V61.9867Z" fill="white"/>
<path d="M66.6644 73.6315C68.0344 74.4633 70.6275 75.3438 72.7803 75.3438C75.4224 75.3438 76.5967 74.2674 76.5967 72.7019C76.5967 71.0872 75.6181 70.2555 72.6826 69.2281C68.0345 67.6136 66.0774 65.0692 66.1263 62.2805C66.1263 58.0728 69.5999 54.7947 75.1288 54.7947C77.7709 54.7947 80.0704 55.4797 81.4404 56.2135L80.2662 60.4701C79.2388 59.883 77.3305 59.1002 75.2267 59.1002C73.0739 59.1002 71.8996 60.1277 71.8996 61.5954C71.8996 63.1121 73.0249 63.8461 76.0585 64.9225C80.3642 66.4882 82.3701 68.6898 82.419 72.2126C82.419 76.5183 79.043 79.6496 72.7314 79.6496C69.8449 79.6496 67.2517 78.9648 65.4903 77.9861L66.6644 73.6315Z" fill="white"/>
</svg>
