<svg width="124" height="125" viewBox="0 0 124 125" fill="none" xmlns="http://www.w3.org/2000/svg">
<rect width="124" height="125" rx="20" fill="#0F083B"/>
<path d="M101.063 24.8748H23.0934V100.813H101.063V24.8748Z" fill="white"/>
<path d="M94.968 30.9712H29.0325V94.7164H94.968V30.9712Z" fill="#0F083C"/>
<g opacity="0.302">
<g opacity="0.302">
<path opacity="0.302" d="M78.875 46.1251C79.0308 46.2289 74.5 50.9689 74.5 50.9689L80.3417 55.5714L74.9688 59.5626L61.5312 46.5939L55.125 48.1564L51.0625 61.1251L43.7188 78.7814L66.2188 94.7189H94.9688V59.0939C94.9688 59.0939 78.7192 46.0214 78.875 46.1251Z" fill="white"/>
</g>
</g>
<g opacity="0.302">
<g opacity="0.302">
<path opacity="0.302" d="M94.968 30.969H29.0325V33.1562H94.968V30.969Z" fill="white"/>
</g>
</g>
<path d="M52.6261 69.6488L49.8575 78.766H43.7953L54.1058 46.5935H61.6L72.0538 78.766H65.7528L62.8411 69.6488H52.6261ZM61.8388 65.2096L59.3089 57.2859C58.6885 55.3288 58.1633 53.133 57.686 51.2713H57.5905C57.1132 53.133 56.6358 55.3763 56.063 57.2859L53.5808 65.2096H61.8388Z" fill="white"/>
<path d="M80.6452 49.0277C80.6452 50.7938 79.3564 52.1782 77.3038 52.1782C75.3467 52.1782 74.058 50.794 74.058 49.0277C74.058 47.2138 75.3945 45.8296 77.3516 45.8296C79.3564 45.8296 80.5974 47.2138 80.6452 49.0277ZM74.3922 78.7658V55.5194H80.3111V78.7658H74.3922Z" fill="white"/>
</svg>
