<svg width="124" height="125" viewBox="0 0 124 125" fill="none" xmlns="http://www.w3.org/2000/svg">
<rect width="124" height="125" rx="20" fill="#0F083B"/>
<path d="M71.5 70.4333C69.9566 69.1869 68.0015 68.5653 66.0217 68.6917H52.5V82.53H66.2433C68.162 82.5863 70.0339 81.9323 71.5 80.6933C72.1949 80.0241 72.7404 79.2153 73.1006 78.3203C73.4608 77.4252 73.6276 76.4641 73.59 75.5C73.6237 74.5552 73.4546 73.6141 73.0941 72.7402C72.7336 71.8662 72.19 71.0796 71.5 70.4333ZM69.6 61.5033C70.2385 60.9345 70.7408 60.2292 71.0697 59.4399C71.3986 58.6505 71.5456 57.7973 71.5 56.9433C71.5932 56.0813 71.4907 55.2093 71.2001 54.3923C70.9095 53.5754 70.4383 52.8346 69.8217 52.225C68.4667 51.2618 66.8271 50.7822 65.1667 50.8633H52.5V63.0867H65.1667C66.8268 63.1192 68.4439 62.5577 69.7267 61.5033H69.6ZM87.3333 28H36.6667C33.3073 28 30.0854 29.3345 27.71 31.71C25.3345 34.0854 24 37.3073 24 40.6667V91.3333C24 94.6927 25.3345 97.9146 27.71 100.29C30.0854 102.665 33.3073 104 36.6667 104H87.3333C90.6927 104 93.9146 102.665 96.29 100.29C98.6655 97.9146 100 94.6927 100 91.3333V40.6667C100 37.3073 98.6655 34.0854 96.29 31.71C93.9146 29.3345 90.6927 28 87.3333 28ZM80.3983 81.3583C79.7864 82.899 78.7821 84.2527 77.485 85.285C75.9776 86.4849 74.2436 87.3681 72.3867 87.8817C69.9925 88.587 67.5037 88.9182 65.0083 88.8633H44.6467V44.53H66.18C69.5608 44.3615 72.9019 45.3193 75.68 47.2533C76.9088 48.2333 77.8799 49.4983 78.509 50.9386C79.1381 52.3789 79.4062 53.9509 79.29 55.5183C79.4072 57.5334 78.8984 59.5354 77.8333 61.25C76.6557 62.906 75.0298 64.1914 73.1467 64.955C74.4049 65.1497 75.6121 65.5913 76.6991 66.2543C77.786 66.9174 78.7311 67.7887 79.48 68.8183C80.9497 71.0506 81.691 73.6838 81.6017 76.355C81.5545 78.0885 81.1445 79.7929 80.3983 81.3583Z" fill="white"/>
</svg>
