<svg width="124" height="125" viewBox="0 0 124 125" fill="none" xmlns="http://www.w3.org/2000/svg">
<rect width="124" height="125" rx="20" fill="#0F083B"/>
<path d="M99.6985 69.4073C96.012 69.4236 92.8195 70.3124 90.1536 71.6292C89.1825 69.6702 88.1784 67.9589 88.0137 66.6754C87.8168 65.1776 87.6024 64.2891 87.833 62.5119C88.0637 60.7341 89.1 58.2161 89.0838 58.0354C89.0675 57.8545 88.8534 56.9491 86.7305 56.9326C84.6076 56.9164 82.7811 57.344 82.5669 57.9035C82.3525 58.463 81.9416 59.7305 81.6947 61.047C81.3162 62.9724 77.4485 69.8516 75.2596 73.4392C74.5357 72.0407 73.9269 70.806 73.795 69.8187C73.5976 68.3208 73.3836 67.4324 73.6141 65.6551C73.8445 63.8773 74.8811 61.3594 74.8646 61.1787C74.8481 60.9977 74.6342 60.0924 72.5115 60.0759C70.3884 60.0596 68.5621 60.4872 68.3477 61.047C68.1338 61.6063 67.9034 62.923 67.4755 64.1907C67.0479 65.4572 61.8966 76.9113 60.5471 79.8903C59.8557 81.404 59.2636 82.622 58.8356 83.4451C58.7701 83.5766 58.7206 83.659 58.6876 83.725C58.7368 83.6428 58.7701 83.5601 58.7701 83.5935C58.408 84.3008 58.1938 84.6959 58.1938 84.6959V84.7121C57.9139 85.2387 57.6013 85.7157 57.4533 85.7157C57.3544 85.7157 57.1407 84.3338 57.5028 82.4411C58.276 78.4584 60.1028 72.2711 60.0863 72.0568C60.0698 71.9416 60.4317 70.872 58.8848 70.2957C57.3874 69.7527 56.8441 70.6581 56.7127 70.6581C56.5812 70.6581 56.4823 70.9874 56.4823 70.9874C56.4823 70.9874 58.1446 64.0095 53.2896 64.0095C50.2615 64.0095 46.0487 67.3341 43.9753 70.3457C42.6751 71.0534 39.8607 72.5838 36.8987 74.2129C35.7631 74.8383 34.5946 75.4799 33.4921 76.0891C33.4098 76.0064 33.3439 75.9242 33.2616 75.842C27.37 69.5557 16.4919 65.1123 16.953 56.6695C17.1174 53.592 18.1872 45.512 37.8698 35.7035C53.9977 27.6725 66.8998 29.8778 69.1218 34.7818C72.3141 41.7762 62.2259 54.7937 45.4729 56.6695C39.0875 57.3772 35.7306 54.9087 34.8912 53.9873C34.0188 53.0164 33.8871 52.9667 33.558 53.1479C33.0147 53.444 33.3606 54.2999 33.558 54.81C34.0518 56.11 36.1087 58.414 39.6143 59.5661C42.6913 60.5699 50.1795 61.1297 59.2306 57.6241C69.401 53.7072 77.317 42.7961 74.9965 33.6628C72.6269 24.3813 57.2397 21.3365 42.6753 26.504C34.0026 29.5815 24.6221 34.42 17.8746 40.7227C9.8601 48.2274 8.57661 54.7605 9.10292 57.4926C10.9792 67.1855 24.342 73.5052 29.6906 78.1788C29.4272 78.327 29.1803 78.4586 28.9501 78.5903C26.2677 79.9231 16.0808 85.2552 13.5299 90.8841C10.6503 97.2692 14.007 101.844 16.2123 102.47C23.0913 104.378 30.1349 100.939 33.9201 95.2941C37.7049 89.6496 37.2443 82.2768 35.5 78.9195C35.4833 78.8702 35.4505 78.8377 35.4342 78.7878C36.1252 78.3767 36.8327 77.9651 37.5406 77.5537C38.9064 76.7473 40.2396 76.0064 41.4078 75.3651C40.7494 77.1426 40.2723 79.2811 40.0254 82.3755C39.7293 85.9959 41.2269 90.6862 43.1689 92.5294C44.0243 93.3359 45.0611 93.3526 45.7031 93.3526C47.9742 93.3526 48.9943 91.4761 50.1298 89.238C51.5288 86.5057 52.763 83.3295 52.763 83.3295C52.763 83.3295 51.2161 91.9207 55.4454 91.9207C56.9923 91.9207 58.5396 89.9292 59.2304 88.9089V88.9252C59.2304 88.9252 59.2636 88.8597 59.3458 88.7282C59.5103 88.4811 59.5925 88.3329 59.5925 88.3329V88.2832C60.2178 87.2136 61.5839 84.7614 63.6406 80.7132C66.307 75.4796 68.8575 68.946 68.8575 68.946C68.8575 68.946 69.0879 70.5429 69.8783 73.1923C70.3389 74.7557 71.3098 76.4672 72.0832 78.1295C71.4582 78.9852 71.0794 79.479 71.0794 79.479C71.0794 79.479 71.0794 79.4953 71.0954 79.5117C70.6018 80.1704 70.0425 80.8781 69.4665 81.5694C67.3599 84.0706 64.8584 86.9344 64.5295 87.7571C64.1342 88.7282 64.2331 89.4517 64.9903 90.0117C65.5496 90.4398 66.5372 90.5053 67.5738 90.4233C69.4665 90.2911 70.7995 89.8308 71.4412 89.5339C72.4613 89.1725 73.6466 88.596 74.7656 87.7899C76.8228 86.2762 78.0738 84.1038 77.9581 81.2402C77.8924 79.6604 77.3819 78.0803 76.7566 76.5996C76.9378 76.336 77.1354 76.0559 77.3164 75.7767C80.5752 71.0199 83.093 65.8037 83.093 65.8037C83.093 65.8037 83.3234 67.3996 84.1131 70.0493C84.5082 71.3825 85.2816 72.8471 85.9891 74.2786C82.9281 76.7638 81.0358 79.6441 80.3774 81.5361C79.1594 85.0417 80.114 86.6211 81.9077 86.9839C82.7142 87.1483 83.8662 86.7695 84.7221 86.4074C85.7917 86.0453 87.0754 85.4693 88.2767 84.5807C90.3338 83.067 92.3253 80.9436 92.1938 78.0638C92.1441 76.7636 91.7822 75.4636 91.3049 74.2129C93.8884 73.127 97.2462 72.5341 101.525 73.0281C110.691 74.0977 112.485 79.8246 112.139 82.2106C111.794 84.6136 109.869 85.9304 109.227 86.3252C108.584 86.7203 108.387 86.8685 108.437 87.1646C108.519 87.5924 108.815 87.5762 109.358 87.477C110.116 87.3455 114.164 85.535 114.344 81.1081C114.608 75.5126 109.227 69.3581 99.6985 69.4073ZM29.0488 93.2204C26.021 96.5283 21.775 97.7791 19.9485 96.7258C17.99 95.5907 18.7635 90.7192 22.4992 87.1971C24.7703 85.058 27.6996 83.0833 29.6416 81.8655C30.0859 81.6023 30.7279 81.2073 31.5178 80.73C31.6495 80.6482 31.7152 80.615 31.7152 80.615C31.8632 80.5158 32.0279 80.4338 32.1925 80.3349C33.558 85.3378 32.2415 89.7481 29.0488 93.2204ZM51.1671 78.1788C50.1138 80.7622 47.892 87.3453 46.543 86.9997C45.3909 86.7033 44.683 81.6841 46.3126 76.7473C47.1352 74.2621 48.8795 71.3 49.9166 70.1482C51.5785 68.2883 53.4052 67.6958 53.8333 68.4364C54.4091 69.4073 51.8251 76.5662 51.1671 78.1788ZM69.434 86.9014C68.9899 87.1316 68.5783 87.2796 68.3809 87.1644C68.233 87.0822 68.5621 86.7693 68.5621 86.7693C68.5621 86.7693 70.8492 84.3173 71.7545 83.1978C72.2811 82.5398 72.8899 81.7661 73.5483 80.9107C73.5483 80.9924 73.5644 81.0753 73.5644 81.1736C73.5486 84.1199 70.7179 86.1115 69.434 86.9014ZM83.5215 83.692C83.1924 83.4616 83.2414 82.6882 84.3442 80.2852C84.7722 79.3471 85.7598 77.7674 87.4709 76.2533C87.6686 76.8786 87.7836 77.4708 87.7836 78.0304C87.7668 81.7333 85.1176 83.1158 83.5215 83.692Z" fill="white"/>
</svg>
