<svg width="84" height="85" viewBox="0 0 84 85" fill="none" xmlns="http://www.w3.org/2000/svg">
<rect width="84" height="85" rx="20" fill="#0F083B"/>
<path d="M40.9498 38.1841C39.7506 38.1841 38.5514 38.3839 37.5521 38.8836C38.9511 39.3833 39.9505 40.6824 39.9505 42.2813C39.9505 44.2799 38.3515 45.8789 36.3529 45.8789C34.754 45.8789 33.4549 44.8795 32.9552 43.4805C32.5555 44.4798 32.2557 45.679 32.2557 46.8782C32.2557 51.6749 36.153 55.5723 40.9498 55.5723C45.7465 55.5723 49.6439 51.6749 49.6439 46.8782C49.6439 42.0814 45.7465 38.1841 40.9498 38.1841Z" fill="white"/>
<path d="M52.6418 27.9912C47.0456 24.4936 40.0503 23.5942 33.6547 25.8926C36.7526 23.6941 40.4501 22.295 44.5473 22.295C46.8457 22.295 49.0442 22.6948 51.0429 23.3943C51.1428 23.3943 51.3427 23.4942 51.4426 23.4942C51.9423 23.4942 52.2421 23.1944 52.2421 22.6948C52.2421 22.395 52.0422 22.0952 51.8423 21.8953C46.5459 16.9986 40.8498 15 40.8498 15C28.1584 20.0965 18.8647 32.2883 18.6649 46.2788C18.5649 50.276 19.4643 54.2733 21.6628 57.9708C22.9619 60.1693 24.5609 62.068 26.3596 63.667C22.862 62.168 19.864 59.4698 17.8654 55.9722C16.7661 53.9735 15.9667 51.9749 15.567 49.7764C15.567 49.6764 15.467 49.4766 15.467 49.3767C15.2672 48.9769 14.7675 48.7771 14.3678 49.0769C14.068 49.2767 13.968 49.4766 13.8681 49.7764C12.2692 56.8716 13.3684 62.7676 13.3684 62.7676C24.2611 71.3617 39.7505 73.1605 52.1421 66.0653C57.9382 62.6676 61.6357 57.1714 62.8349 51.0755C63.2346 54.8729 62.5351 58.7703 60.4365 62.2679C59.3372 64.2665 57.9382 65.9654 56.2393 67.2645C56.1394 67.3644 56.0395 67.4644 55.9395 67.5643C55.7397 67.964 55.8396 68.4637 56.2393 68.6636C56.5391 68.8634 56.8389 68.8634 57.0388 68.7635C63.9341 66.565 68.531 62.6676 68.531 62.6676C70.4297 49.3767 64.5337 35.2862 52.6418 27.9912ZM40.9497 61.3685C30.8566 61.3685 22.5622 54.2733 22.5622 45.4793C22.5622 44.5799 22.6621 43.5806 22.862 42.7811C26.6594 38.8838 33.3549 36.2855 40.9497 36.2855C48.5446 36.2855 55.24 38.8838 59.0374 42.7811C59.2373 43.6805 59.3372 44.5799 59.3372 45.4793C59.2373 54.2733 51.0429 61.3685 40.9497 61.3685Z" fill="white"/>
</svg>
