<svg width="84" height="85" viewBox="0 0 84 85" fill="none" xmlns="http://www.w3.org/2000/svg">
<rect width="84" height="85" rx="20" fill="#0F083B"/>
<g clip-path="url(#clip0)">
<path d="M23.4762 38C20.3196 38 17.7603 40.463 17.7603 43.5C17.7603 46.537 20.3196 49 23.4762 49C26.6328 49 29.1916 46.5376 29.1916 43.5C29.1921 40.463 26.6333 38 23.4762 38ZM23.4762 45.9378C22.0767 45.9378 20.9425 44.8462 20.9425 43.5C20.9425 42.1538 22.0773 41.0622 23.4762 41.0622C24.8751 41.0622 26.0093 42.1538 26.0093 43.5C26.0099 44.8462 24.8756 45.9378 23.4762 45.9378Z" fill="white"/>
<path d="M35.2887 38C32.1321 38 29.5728 40.463 29.5728 43.5C29.5728 46.537 32.1321 49 35.2887 49C38.4453 49 41.0035 46.5376 41.0035 43.5C41.0046 40.463 38.4453 38 35.2887 38ZM35.2887 45.9378C33.8892 45.9378 32.755 44.8462 32.755 43.5C32.755 42.1538 33.8898 41.0622 35.2887 41.0622C36.6876 41.0622 37.8218 42.1538 37.8218 43.5C37.8218 44.8462 36.6876 45.9378 35.2887 45.9378Z" fill="white"/>
<path d="M53.6129 38C50.4563 38 47.8975 40.463 47.8975 43.5C47.8975 46.537 50.4563 49 53.6129 49C56.7689 49 59.3282 46.5376 59.3282 43.5C59.3288 40.463 56.7694 38 53.6129 38ZM53.6129 45.9378C52.2134 45.9378 51.0792 44.8462 51.0792 43.5C51.0792 42.1538 52.2134 41.0622 53.6129 41.0622C55.0129 41.0622 56.1465 42.1538 56.1465 43.5C56.1465 44.8462 55.0129 45.9378 53.6129 45.9378Z" fill="white"/>
<path d="M17.0253 44.4502C16.298 43.9788 15.3114 44.1616 14.8187 44.8593C14.817 44.8614 14.8154 44.8645 14.8132 44.8666C14.8072 44.875 14.8017 44.8829 14.7968 44.8912H14.7957C14.3385 45.5235 13.5778 45.9378 12.7154 45.9378C11.3165 45.9378 10.1823 44.8462 10.1823 43.5C10.1823 42.1538 11.3165 41.0622 12.7154 41.0622C13.5882 41.0622 14.3577 41.4865 14.8127 42.1329C14.8148 42.1355 14.817 42.1386 14.8192 42.1418C15.3114 42.839 16.298 43.0218 17.0253 42.5498C17.7538 42.0768 17.9457 41.1256 17.4535 40.4242C17.4502 40.419 17.4464 40.4148 17.4431 40.4095H17.4437C16.415 38.9549 14.6809 38 12.7154 38C9.55883 38 7 40.4624 7 43.5C7 46.5376 9.55883 49 12.7154 49C14.6754 49 16.4052 48.0509 17.4349 46.6041L17.4338 46.603C17.4398 46.5947 17.447 46.5858 17.4535 46.5753C17.9452 45.8744 17.7532 44.9232 17.0253 44.4502Z" fill="white"/>
<path d="M14.7957 44.8903L14.7973 44.8913C14.8028 44.8829 14.8082 44.8751 14.8137 44.8667C14.8077 44.8751 14.8022 44.8835 14.7957 44.8903Z" fill="white"/>
<path d="M14.8159 44.8641L14.8137 44.8667L14.8192 44.8599L14.8159 44.8641Z" fill="white"/>
<path d="M14.8192 42.1412C14.8171 42.1386 14.8154 42.1355 14.8132 42.1323C14.8143 42.1339 14.8149 42.1355 14.816 42.137C14.8171 42.1381 14.8182 42.1397 14.8192 42.1412Z" fill="white"/>
<path d="M47.1116 45.9378C47.1083 45.9378 47.1051 45.9378 47.1029 45.9378H47.1051C45.7089 45.9347 44.5774 44.8441 44.5774 43.5V39.5311C44.5774 39.2236 44.4839 38.9387 44.322 38.6988C44.0387 38.2781 43.5471 38 42.9871 38C42.1083 38 41.3951 38.6851 41.3951 39.5311V43.5C41.3951 46.535 43.9512 48.9969 47.1051 49C47.1072 49 47.1094 49 47.1116 49C47.1094 49 47.1072 49 47.1051 49H47.1029C47.1062 49 47.1083 49 47.1116 49C47.9899 49 48.703 48.3143 48.703 47.4694C48.703 46.6235 47.9899 45.9378 47.1116 45.9378Z" fill="white"/>
<path d="M65.4397 41.0622C65.437 41.0622 65.4337 41.0622 65.4309 41.0622H65.4337C64.0375 41.0653 62.9055 42.1554 62.9055 43.5V47.4694C62.9055 47.7764 62.8125 48.0619 62.6501 48.3012C62.3668 48.7219 61.8752 49 61.3152 49C60.4369 49 59.7238 48.3143 59.7238 47.4694V43.5C59.7238 40.4645 62.2798 38.0037 65.4337 38H65.4397C65.4375 38 65.4359 38 65.4337 38H65.4309C65.4337 38 65.437 38 65.4397 38C66.318 38 67.0306 38.6851 67.0306 39.5311C67.0311 40.377 66.3185 41.0622 65.4397 41.0622Z" fill="white"/>
<path d="M69.893 44.8702L69.89 44.8645L69.893 44.8702Z" fill="white"/>
<path d="M74.0891 44.8643L74.0879 44.866L74.092 44.8608L74.0891 44.8643Z" fill="white"/>
<path d="M69.8873 44.8618L69.8895 44.8644L69.8884 44.8639L69.8873 44.8618Z" fill="white"/>
<path d="M76.2978 44.4502C76.2503 44.4182 76.1994 44.391 76.1496 44.3653L70.8455 41.3257C71.1895 41.1575 71.5783 41.0622 71.9896 41.0622C72.8569 41.0622 73.622 41.4818 74.0792 42.1224L74.0803 42.1219C74.3575 42.5273 74.8306 42.7991 75.3731 42.8107C76.2514 42.8295 76.9798 42.1601 77 41.3147C77.0077 40.9726 76.8972 40.6552 76.7053 40.3964C76.7085 40.4006 76.7118 40.4043 76.7157 40.4085L76.7168 40.4074C75.687 38.9544 73.9539 38 71.989 38C70.0274 38 68.2976 38.9512 67.2678 40.4001L67.2689 40.4006C67.2624 40.409 67.2564 40.4163 67.2503 40.4247C66.7593 41.1256 66.9512 42.0773 67.6802 42.5503C67.7289 42.5818 67.7792 42.6106 67.8295 42.6362L73.1325 45.6754C72.7886 45.843 72.4008 45.9383 71.9885 45.9383C71.1168 45.9383 70.3484 45.5146 69.8928 44.8703H69.8918C69.8928 44.8713 69.8928 44.8724 69.8939 44.8724C69.8918 44.8703 69.8907 44.8682 69.8896 44.865C69.8885 44.864 69.8874 44.863 69.8868 44.8619C69.3957 44.1631 68.407 43.9777 67.6796 44.4507C66.9507 44.9232 66.7582 45.876 67.2498 46.5758C67.2509 46.5779 67.2525 46.58 67.2536 46.581V46.5821C68.2812 48.0409 70.0181 49.0005 71.9885 49.0005C73.9556 49.0005 75.6886 48.044 76.7168 46.5889C76.72 46.5847 76.7244 46.5805 76.7277 46.5758C76.7277 46.5748 76.7288 46.5737 76.7299 46.5727C76.7321 46.5695 76.7343 46.5674 76.7364 46.5643L76.7353 46.5632C77.2166 45.8634 77.023 44.9211 76.2978 44.4502Z" fill="white"/>
</g>
<defs>
<clipPath id="clip0">
<rect width="70" height="11" fill="white" transform="translate(7 38)"/>
</clipPath>
</defs>
</svg>
