<svg width="84" height="85" viewBox="0 0 84 85" fill="none" xmlns="http://www.w3.org/2000/svg">
<rect width="84" height="85" rx="20" fill="#0F083B"/>
<path d="M16.1429 42.468V50H14.0709V49.104C13.7815 49.4307 13.4362 49.6827 13.0349 49.86C12.6335 50.028 12.1995 50.112 11.7329 50.112C10.7435 50.112 9.95954 49.8273 9.38088 49.258C8.80221 48.6887 8.51288 47.844 8.51288 46.724V42.468H10.6969V46.402C10.6969 47.6153 11.2055 48.222 12.2229 48.222C12.7455 48.222 13.1655 48.054 13.4829 47.718C13.8002 47.3727 13.9589 46.864 13.9589 46.192V42.468H16.1429ZM24.8442 42.356C25.7775 42.356 26.5289 42.636 27.0982 43.196C27.6769 43.756 27.9662 44.5867 27.9662 45.688V50H25.7822V46.024C25.7822 45.4267 25.6515 44.9833 25.3902 44.694C25.1289 44.3953 24.7509 44.246 24.2562 44.246C23.7055 44.246 23.2669 44.4187 22.9402 44.764C22.6135 45.1 22.4502 45.604 22.4502 46.276V50H20.2662V42.468H22.3522V43.35C22.6415 43.0327 23.0009 42.79 23.4302 42.622C23.8595 42.4447 24.3309 42.356 24.8442 42.356ZM32.1999 40.2H36.6519C37.7159 40.2 38.6539 40.4053 39.4659 40.816C40.2872 41.2173 40.9219 41.7867 41.3699 42.524C41.8272 43.2613 42.0559 44.12 42.0559 45.1C42.0559 46.08 41.8272 46.9387 41.3699 47.676C40.9219 48.4133 40.2872 48.9873 39.4659 49.398C38.6539 49.7993 37.7159 50 36.6519 50H32.1999V40.2ZM36.5399 48.138C37.5199 48.138 38.2992 47.8673 38.8779 47.326C39.4659 46.7753 39.7599 46.0333 39.7599 45.1C39.7599 44.1667 39.4659 43.4293 38.8779 42.888C38.2992 42.3373 37.5199 42.062 36.5399 42.062H34.4679V48.138H36.5399ZM47.7983 43.462C48.0596 43.098 48.4096 42.8227 48.8483 42.636C49.2963 42.4493 49.8096 42.356 50.3883 42.356V44.372C50.1456 44.3533 49.9823 44.344 49.8983 44.344C49.273 44.344 48.783 44.5213 48.4283 44.876C48.0736 45.2213 47.8963 45.744 47.8963 46.444V50H45.7123V42.468H47.7983V43.462ZM56.7839 42.356C57.9506 42.356 58.8466 42.636 59.4719 43.196C60.0972 43.7467 60.4099 44.582 60.4099 45.702V50H58.3659V49.062C57.9552 49.762 57.1899 50.112 56.0699 50.112C55.4912 50.112 54.9872 50.014 54.5579 49.818C54.1379 49.622 53.8159 49.3513 53.5919 49.006C53.3679 48.6607 53.2559 48.2687 53.2559 47.83C53.2559 47.13 53.5172 46.5793 54.0399 46.178C54.5719 45.7767 55.3886 45.576 56.4899 45.576H58.2259C58.2259 45.1 58.0812 44.736 57.7919 44.484C57.5026 44.2227 57.0686 44.092 56.4899 44.092C56.0886 44.092 55.6919 44.1573 55.2999 44.288C54.9172 44.4093 54.5906 44.5773 54.3199 44.792L53.5359 43.266C53.9466 42.9767 54.4366 42.7527 55.0059 42.594C55.5846 42.4353 56.1772 42.356 56.7839 42.356ZM56.6159 48.642C56.9892 48.642 57.3206 48.558 57.6099 48.39C57.8992 48.2127 58.1046 47.956 58.2259 47.62V46.85H56.7279C55.8319 46.85 55.3839 47.144 55.3839 47.732C55.3839 48.012 55.4912 48.236 55.7059 48.404C55.9299 48.5627 56.2332 48.642 56.6159 48.642ZM76.4458 42.468L73.7158 50H71.6158L69.9218 45.324L68.1718 50H66.0718L63.3558 42.468H65.4138L67.1918 47.564L69.0398 42.468H70.8878L72.6798 47.564L74.5138 42.468H76.4458Z" fill="white"/>
</svg>
